<svg xmlns="http://www.w3.org/2000/svg" viewBox="0 0 480 240" role="img" aria-labelledby="title desc">
  <title id="title">PIELSN logo placeholder</title>
  <desc id="desc">Pele Island Environmental Learning and Stewardship Network wordmark.</desc>
  <rect width="480" height="240" rx="24" fill="#ffffff"/>
  <circle cx="120" cy="112" r="64" fill="#e85d75"/>
  <path d="M67 124c26-38 55-54 88-48 12 2 24 7 36 15-17 5-32 15-45 29-24 26-51 34-79 24z" fill="#f1dca7"/>
  <path d="M72 137c30-5 57 0 80 16 15 10 31 15 49 13-21 21-49 31-84 28-28-2-50-15-66-38 5-8 12-14 21-19z" fill="#176f48"/>
  <path d="M51 116c26 9 51 9 75 0 27-10 54-8 82 8-35 6-64 18-87 37-21 17-45 20-72 9-7-18-6-36 2-54z" fill="#7dbb6f"/>
  <text x="220" y="98" font-family="Arial, Helvetica, sans-serif" font-size="56" font-weight="700" fill="#0f172a">PIELSN</text>
  <text x="222" y="135" font-family="Arial, Helvetica, sans-serif" font-size="22" font-weight="700" fill="#176f48">Pele Island</text>
  <text x="222" y="166" font-family="Arial, Helvetica, sans-serif" font-size="18" fill="#475569">Environmental Learning and</text>
  <text x="222" y="190" font-family="Arial, Helvetica, sans-serif" font-size="18" fill="#475569">Stewardship Network</text>
</svg>
